<svg xmlns="http://www.w3.org/2000/svg" width="33.592" height="29.56" viewBox="0 0 33.592 29.56"><defs><style>.a{fill:#fff;stroke:#fc9f5a;stroke-width:0.3px;}</style></defs><path class="a" d="M32.323,3.9H23.474V2.926A2.929,2.929,0,0,0,20.548,0h-7.8A2.929,2.929,0,0,0,9.819,2.926V3.9H.976A.978.978,0,0,0,0,4.877V26.334A2.929,2.929,0,0,0,2.926,29.26h27.44a2.929,2.929,0,0,0,2.926-2.926V4.893a.947.947,0,0,0-.969-.992ZM11.769,2.926a.977.977,0,0,1,.975-.975h7.8a.977.977,0,0,1,.975.975V3.9H11.769ZM30.963,5.852l-3.029,9.086a.974.974,0,0,1-.925.667H21.523V14.63a.975.975,0,0,0-.975-.975h-7.8a.975.975,0,0,0-.975.975v.975H6.283a.974.974,0,0,1-.925-.667L2.329,5.852ZM19.572,15.606v1.951H13.72V15.606ZM31.341,26.334a.977.977,0,0,1-.975.975H2.926a.977.977,0,0,1-.975-.975V10.887l1.556,4.668a2.922,2.922,0,0,0,2.776,2h5.487v.975a.975.975,0,0,0,.975.975h7.8a.975.975,0,0,0,.975-.975v-.975h5.487a2.922,2.922,0,0,0,2.776-2l1.556-4.668Zm0,0" transform="translate(0.15 0.15)"/></svg>