<svg xmlns="http://www.w3.org/2000/svg" width="25.821" height="35.999" viewBox="0 0 25.821 35.999"><defs><style>.a{fill:#fff;}.b{fill:#fa6400;}</style></defs><g transform="translate(-1302.179 -22)"><g transform="translate(1302 29)"><path class="a" d="M23.167,20.634l-1.632-2.56a1.781,1.781,0,0,1-.276-.848l-.564-8.6a9.14,9.14,0,0,0-8.43-8.61A8.976,8.976,0,0,0,2.773,8.382l-.582,8.843a1.781,1.781,0,0,1-.276.848L.283,20.634A1.8,1.8,0,0,0,1.807,23.4H21.649a1.8,1.8,0,0,0,1.518-2.767" transform="translate(0.179 0.198)"/><path class="a" d="M5.349,0A1.2,1.2,0,0,1,6.375,1.826a3.6,3.6,0,0,1-6.2,0A1.2,1.2,0,0,1,1.2,0H5.349" transform="translate(8.631 25.399)"/></g><circle class="b" cx="4" cy="4" r="4" transform="translate(1320 22)"/></g></svg>