<svg xmlns="http://www.w3.org/2000/svg" width="24" height="23" viewBox="0 0 24 23"><defs><style>.a{fill:#f77016;}</style></defs><g transform="translate(0.447 0.079)"><path class="a" d="M17.927,23H6.072A6.278,6.278,0,0,1,0,16.547V6.453A6.278,6.278,0,0,1,6.072,0H17.927a5.927,5.927,0,0,1,4.3,1.893A6.62,6.62,0,0,1,24,6.453V16.547A6.279,6.279,0,0,1,17.927,23ZM4.841,6.7A.854.854,0,0,0,4.2,6.99a1.024,1.024,0,0,0-.085,1.278l.158.166L9.732,12.97a3.613,3.613,0,0,0,2.34.868,3.671,3.671,0,0,0,2.35-.868l5.414-4.613.1-.1a1.038,1.038,0,0,0-.014-1.278.976.976,0,0,0-.634-.332h-.051a.882.882,0,0,0-.623.257L13.2,11.5a1.81,1.81,0,0,1-1.2.461,1.841,1.841,0,0,1-1.2-.461L5.4,6.9A.9.9,0,0,0,4.841,6.7Z" transform="translate(-0.447 -0.079)"/></g></svg>