<svg xmlns="http://www.w3.org/2000/svg" width="21.488" height="21.488" viewBox="0 0 21.488 21.488"><defs><style>.a{fill:#1e306e;}</style></defs><g transform="translate(-0.43 -0.169)"><path class="a" d="M18.931,21.488H2.558A2.561,2.561,0,0,1,0,18.931V5.117A2.561,2.561,0,0,1,2.558,2.558H3.581V1.535a1.535,1.535,0,0,1,3.07,0V2.558h8.186V1.535a1.535,1.535,0,0,1,3.07,0V2.558h1.023a2.561,2.561,0,0,1,2.558,2.559V18.931A2.561,2.561,0,0,1,18.931,21.488ZM3.07,7.674a.513.513,0,0,0-.512.512V18.419a.513.513,0,0,0,.512.512H18.419a.513.513,0,0,0,.512-.512V8.186a.513.513,0,0,0-.512-.512Z" transform="translate(0.43 0.169)"/><path class="a" d="M2.047,1.023A1.023,1.023,0,1,1,1.023,0,1.022,1.022,0,0,1,2.047,1.023" transform="translate(5.547 10.401)"/><path class="a" d="M2.047,1.023A1.023,1.023,0,1,1,1.023,0,1.022,1.022,0,0,1,2.047,1.023" transform="translate(5.547 14.494)"/><path class="a" d="M2.047,1.023A1.023,1.023,0,1,1,1.023,0,1.022,1.022,0,0,1,2.047,1.023" transform="translate(10.151 10.401)"/><path class="a" d="M2.047,1.023A1.023,1.023,0,1,1,1.023,0,1.022,1.022,0,0,1,2.047,1.023" transform="translate(10.151 14.494)"/><path class="a" d="M2.047,1.023A1.023,1.023,0,1,1,1.023,0,1.022,1.022,0,0,1,2.047,1.023" transform="translate(14.756 10.401)"/><path class="a" d="M2.047,1.023A1.023,1.023,0,1,1,1.023,0,1.022,1.022,0,0,1,2.047,1.023" transform="translate(14.756 14.494)"/></g></svg>