<svg xmlns="http://www.w3.org/2000/svg" width="38.893" height="32.185" viewBox="0 0 38.893 32.185"><defs><style>.a{fill:#fff;stroke:#fc9f5a;stroke-width:2px;fill-rule:evenodd;}</style></defs><g transform="translate(-4 -8)"><g transform="translate(5 9)"><path class="a" d="M40.216,35.831a1.682,1.682,0,0,1-1.677-1.677,5.031,5.031,0,0,0-10.062,0v2.515h0v.838a1.677,1.677,0,0,1-3.354,0,8.385,8.385,0,1,0-16.769,0,1.677,1.677,0,0,1-3.354,0v-.587a14.387,14.387,0,0,1,.335-2.012,11.615,11.615,0,0,1,5.7-7.546,10.2,10.2,0,0,1-4.36-8.3,10.062,10.062,0,1,1,20.123,0,10.2,10.2,0,0,1-4.36,8.3,11.64,11.64,0,0,1,3.605,3.1,8.5,8.5,0,0,1,2.767-3.186A6.919,6.919,0,0,1,26.8,22.415a6.708,6.708,0,0,1,13.415,0A6.579,6.579,0,0,1,38.2,27.195,8.594,8.594,0,0,1,41.389,31.3a8.844,8.844,0,0,1,.5,2.012v.838A1.682,1.682,0,0,1,40.216,35.831ZM23.446,19.062a6.708,6.708,0,1,0-6.708,6.708A6.727,6.727,0,0,0,23.446,19.062Zm10.062,0a3.354,3.354,0,1,0,3.354,3.354A3.364,3.364,0,0,0,33.508,19.062Z" transform="translate(-5 -9)"/></g></g></svg>