<svg xmlns="http://www.w3.org/2000/svg" width="20" height="20" viewBox="0 0 20 20"><defs><style>.a{opacity:0.4;}</style></defs><g class="a"><path d="M17.619,0H2.381A2.384,2.384,0,0,0,0,2.381V15.238a2.384,2.384,0,0,0,2.381,2.381h.952v.953a1.428,1.428,0,1,0,2.857,0v-.953h7.619v.953a1.429,1.429,0,0,0,2.857,0v-.953h.952A2.384,2.384,0,0,0,20,15.238V2.381A2.384,2.384,0,0,0,17.619,0ZM2.857,12.857a.477.477,0,0,1-.476-.476V2.857a.477.477,0,0,1,.476-.476H17.143a.477.477,0,0,1,.476.476v9.524a.477.477,0,0,1-.476.476Z" transform="translate(20 20) rotate(180)"/><path d="M0,.952A.952.952,0,1,0,.952,0,.951.951,0,0,0,0,.952" transform="translate(13.333 9.524)"/><path d="M0,.952A.952.952,0,1,0,.952,0,.951.951,0,0,0,0,.952" transform="translate(13.333 13.333)"/><path d="M0,.952A.952.952,0,1,0,.952,0,.951.951,0,0,0,0,.952" transform="translate(9.048 9.524)"/><path d="M0,.952A.952.952,0,1,0,.952,0,.951.951,0,0,0,0,.952" transform="translate(9.048 13.333)"/><path d="M0,.952A.952.952,0,1,0,.952,0,.951.951,0,0,0,0,.952" transform="translate(4.762 9.524)"/><path d="M0,.952A.952.952,0,1,0,.952,0,.951.951,0,0,0,0,.952" transform="translate(4.762 13.333)"/></g></svg>