<svg xmlns="http://www.w3.org/2000/svg" width="14.438" height="14.406" viewBox="0 0 14.438 14.406"><defs><style>.a{fill:#fff;}</style></defs><path class="a" d="M14.114,11.394l-2.23-2.23a1.163,1.163,0,0,0-1.639.031L9.122,10.318,8.9,10.195A11.179,11.179,0,0,1,6.2,8.24,11.241,11.241,0,0,1,4.24,5.534c-.042-.075-.081-.148-.121-.217l.754-.753.371-.371a1.162,1.162,0,0,0,.03-1.639L3.044.324A1.161,1.161,0,0,0,1.405.354L.777.986.794,1a3.634,3.634,0,0,0-.518.913,3.787,3.787,0,0,0-.23.926c-.294,2.441.821,4.672,3.848,7.7,4.184,4.184,7.556,3.868,7.7,3.852a3.767,3.767,0,0,0,.929-.233,3.622,3.622,0,0,0,.91-.516l.014.012.637-.623A1.164,1.164,0,0,0,14.114,11.394Z"/></svg>