<svg xmlns="http://www.w3.org/2000/svg" width="31.906" height="14.603" viewBox="0 0 31.906 14.603"><defs><style>.a{fill:#1e306e;}</style></defs><g transform="translate(0 -138.833)"><g transform="translate(4.254 148.118)"><g transform="translate(0 0)"><path class="a" d="M70.925,287.834a2.659,2.659,0,1,0,2.659,2.659A2.662,2.662,0,0,0,70.925,287.834Zm0,4.254a1.6,1.6,0,1,1,1.6-1.6A1.6,1.6,0,0,1,70.925,292.088Z" transform="translate(-68.266 -287.834)"/></g></g><g transform="translate(0 138.833)"><g transform="translate(0 0)"><path class="a" d="M31.375,148.118v-3.191a.532.532,0,0,0-.364-.5l-3-1a8.162,8.162,0,0,0-6.116-4.337l-.019,0c-6.339-.876-11.1.554-14.154,4.251a12.288,12.288,0,0,0-5.962,1.383A2.6,2.6,0,0,0,.593,146.8l-.062,1.32A.532.532,0,0,0,0,148.65v2.127a.532.532,0,0,0,.532.532H2.659a.535.535,0,0,0,.532-.538s0-.005,0-.009a3.722,3.722,0,0,1,7.444.014.484.484,0,0,0,.532.532h9.572a.535.535,0,0,0,.532-.538s0-.005,0-.009a3.722,3.722,0,0,1,7.444.014.484.484,0,0,0,.532.532h2.127a.532.532,0,0,0,.532-.532V148.65A.532.532,0,0,0,31.375,148.118Zm-14.358-5.052a.266.266,0,0,1-.266.266H9.816a.267.267,0,0,1-.176-.467,11.681,11.681,0,0,1,7.084-2.9.271.271,0,0,1,.293.268Zm6.389,0a.266.266,0,0,1-.266.263H18.346a.266.266,0,0,1-.266-.266v-2.9a.267.267,0,0,1,.264-.269,24.458,24.458,0,0,1,3.375.241,8.96,8.96,0,0,1,1.535.406.266.266,0,0,1,.172.254Zm2.775.263H24.735a.266.266,0,0,1-.266-.269l.014-1.441a.268.268,0,0,1,.43-.209,7.031,7.031,0,0,1,1.479,1.488A.267.267,0,0,1,26.181,143.332Z" transform="translate(0 -138.833)"/></g></g><g transform="translate(22.334 148.118)"><g transform="translate(0 0)"><path class="a" d="M361.059,287.834a2.659,2.659,0,1,0,2.659,2.659A2.662,2.662,0,0,0,361.059,287.834Zm0,4.254a1.6,1.6,0,1,1,1.6-1.6A1.6,1.6,0,0,1,361.059,292.088Z" transform="translate(-358.4 -287.834)"/></g></g></g></svg>