<svg xmlns="http://www.w3.org/2000/svg" width="20.872" height="20.872" viewBox="0 0 20.872 20.872"><defs><style>.a{fill:#fff;}.b{opacity:0.3;}.c{fill:none;stroke:#000;stroke-width:1.6px;}.d,.e{stroke:none;}.e{fill:rgba(0,0,0,0.1);}</style></defs><g transform="translate(-150 -219)"><g class="a" transform="translate(150 219)"><path class="d" d="M10.436,0A10.436,10.436,0,1,1,0,10.436,10.436,10.436,0,0,1,10.436,0Z"/><path class="e" d="M 10.43597412109375 0.5000038146972656 C 4.957263946533203 0.5000038146972656 0.5000038146972656 4.957263946533203 0.5000038146972656 10.43597412109375 C 0.5000038146972656 15.9146842956543 4.957263946533203 20.37194442749023 10.43597412109375 20.37194442749023 C 15.9146842956543 20.37194442749023 20.37194442749023 15.9146842956543 20.37194442749023 10.43597412109375 C 20.37194442749023 4.957263946533203 15.9146842956543 0.5000038146972656 10.43597412109375 0.5000038146972656 M 10.43597412109375 3.814697265625e-06 C 16.19960403442383 3.814697265625e-06 20.87194442749023 4.672344207763672 20.87194442749023 10.43597412109375 C 20.87194442749023 16.19960403442383 16.19960403442383 20.87194442749023 10.43597412109375 20.87194442749023 C 4.672344207763672 20.87194442749023 3.814697265625e-06 16.19960403442383 3.814697265625e-06 10.43597412109375 C 3.814697265625e-06 4.672344207763672 4.672344207763672 3.814697265625e-06 10.43597412109375 3.814697265625e-06 Z"/></g><g class="b" transform="translate(160.634 221.319) rotate(45)"><path class="c" d="M0,11.6V0" transform="translate(5.798)"/><path class="c" d="M0,11.6V0" transform="translate(0 5.798) rotate(-90)"/></g></g></svg>