<svg xmlns="http://www.w3.org/2000/svg" width="24.736" height="24.736" viewBox="0 0 24.736 24.736"><defs><style>.a{fill:#fff;}.b{opacity:0.3;}.c{fill:none;stroke:#000;stroke-width:1.6px;}.d,.e{stroke:none;}.e{fill:rgba(0,0,0,0.1);}</style></defs><g transform="translate(-646 -610)"><g class="a" transform="translate(646 610)"><path class="d" d="M12.368,0A12.368,12.368,0,1,1,0,12.368,12.368,12.368,0,0,1,12.368,0Z"/><path class="e" d="M 12.36777591705322 0.4999961853027344 C 9.197775840759277 0.4999961853027344 6.21751594543457 1.734466552734375 3.975986480712891 3.975986480712891 C 1.734466552734375 6.21751594543457 0.4999961853027344 9.197775840759277 0.4999961853027344 12.36777591705322 C 0.4999961853027344 15.53777599334717 1.734466552734375 18.51803588867188 3.975986480712891 20.75956535339355 C 6.21751594543457 23.00108528137207 9.197775840759277 24.23555564880371 12.36777591705322 24.23555564880371 C 15.53777599334717 24.23555564880371 18.51803588867188 23.00108528137207 20.75956535339355 20.75956535339355 C 23.00108528137207 18.51803588867188 24.23555564880371 15.53777599334717 24.23555564880371 12.36777591705322 C 24.23555564880371 9.197775840759277 23.00108528137207 6.21751594543457 20.75956535339355 3.975986480712891 C 18.51803588867188 1.734466552734375 15.53777599334717 0.4999961853027344 12.36777591705322 0.4999961853027344 M 12.36777591705322 -3.814697265625e-06 C 19.19830703735352 -3.814697265625e-06 24.73555564880371 5.537246704101563 24.73555564880371 12.36777591705322 C 24.73555564880371 19.19830703735352 19.19830703735352 24.73555564880371 12.36777591705322 24.73555564880371 C 5.537246704101563 24.73555564880371 -3.814697265625e-06 19.19830703735352 -3.814697265625e-06 12.36777591705322 C -3.814697265625e-06 5.537246704101563 5.537246704101563 -3.814697265625e-06 12.36777591705322 -3.814697265625e-06 Z"/></g><g class="b" transform="translate(658.103 615.416) rotate(45)"><path class="c" d="M0,10.045.588,0" transform="translate(4.434 -0.294)"/><path class="c" d="M.588,10.045,0,0" transform="translate(-0.294 5.023) rotate(-90)"/></g></g></svg>