<svg xmlns="http://www.w3.org/2000/svg" width="307" height="249" viewBox="0 0 307 249"><defs><style>.a,.c,.d,.j{fill:none;}.a{stroke:#c6c6c6;}.b{fill:#fff;}.c{stroke:#1e306e;stroke-width:29px;stroke-dasharray:748 1141;}.c,.d{stroke-linecap:round;}.d{stroke-dasharray:360 1141;}.e{font-size:13px;font-family:Gilroy-SemiBold, Gilroy;font-weight:600;}.f{font-size:16px;font-family:Gilroy-Medium, Gilroy;font-weight:500;letter-spacing:0.024em;opacity:0.64;}.g{fill:#1e306e;}.h,.k{fill:#fa6400;}.i,.k{stroke:none;}</style></defs><g transform="translate(-142.5 -261.5)"><g class="a" transform="translate(142.5 261.5)"><rect class="i" width="307" height="249" rx="12"/><rect class="j" x="0.5" y="0.5" width="306" height="248" rx="11.5"/></g><g transform="translate(-248 16)"><circle class="b" cx="52.878" cy="52.878" r="52.878" transform="translate(490.133 297.941)"/><g class="c" transform="translate(571.323 454.176) rotate(-150)"><circle class="i" cx="75.53" cy="75.53" r="75.53"/><circle class="j" cx="75.53" cy="75.53" r="61.03"/></g><g class="d" transform="matrix(-0.588, 0.809, -0.809, -0.588, 649.5, 334.29)"><path class="i" d="M75.53,0A75.53,75.53,0,1,1,0,75.53,75.53,75.53,0,0,1,75.53,0Z"/><path class="k" d="M 75.52965545654297 0 C 117.2434997558594 0 151.0593109130859 33.81575775146484 151.0593109130859 75.52965545654297 C 151.0593109130859 117.2434997558594 117.2434997558594 151.0593109130859 75.52965545654297 151.0593109130859 C 33.81575775146484 151.0593109130859 0 117.2434997558594 0 75.52965545654297 C 0 75.50928497314453 1.52587890625e-05 75.49060821533203 3.0517578125e-05 75.47023773193359 C 3.0517578125e-05 75.46949768066406 3.0517578125e-05 75.46868133544922 3.0517578125e-05 75.46794128417969 C 4.57763671875e-05 75.44757843017578 6.103515625e-05 75.43129730224609 9.1552734375e-05 75.41093444824219 C 0.0001068115234375 75.40920257568359 0.0001068115234375 75.40767669677734 0.0001068115234375 75.40594482421875 C 0.0001373291015625 75.38558197021484 0.0001678466796875 75.37053680419922 0.000213623046875 75.35018157958984 C 0.000213623046875 75.34828186035156 0.0002288818359375 75.34626770019531 0.0002288818359375 75.34436798095703 C 0.000274658203125 75.32655334472656 0.0003204345703125 75.30725860595703 0.0003814697265625 75.28945159912109 C 0.0003814697265625 75.28722381591797 0.000396728515625 75.2850341796875 0.000396728515625 75.28280639648438 C 0.0004730224609375 75.26245880126953 0.000518798828125 75.24826049804688 0.0005950927734375 75.22791290283203 C 0.0006103515625 75.22576904296875 0.0006103515625 75.22369384765625 0.0006256103515625 75.22154998779297 C 0.0006866455078125 75.20374298095703 0.0007781982421875 75.18520355224609 0.0008544921875 75.16739654541016 C 0.0008697509765625 75.16475677490234 0.000885009765625 75.16230010986328 0.0009002685546875 75.15966796875 C 0.0009765625 75.14186096191406 0.001068115234375 75.1241455078125 0.0011749267578125 75.10634613037109 C 0.001190185546875 75.10362243652344 0.0012054443359375 75.10092926025391 0.001220703125 75.09820556640625 C 0.001312255859375 75.08040618896484 0.0014190673828125 75.0626220703125 0.00152587890625 75.04483032226563 C 0.0015411376953125 75.04227447509766 0.001556396484375 75.03968048095703 0.0015716552734375 75.03712463378906 C 0.0016937255859375 75.01933288574219 0.0018157958984375 75.00079345703125 0.0019378662109375 74.98300170898438 C 0.001953125 74.98077392578125 0.0019683837890625 74.97864532470703 0.001983642578125 74.97641754150391 C 0.00213623046875 74.95608520507813 0.0022430419921875 74.94162750244141 0.002410888671875 74.92129516601563 C 0.0024261474609375 74.91956329345703 0.00244140625 74.91770172119141 0.00244140625 74.91596984863281 C 0.0026092529296875 74.89563751220703 0.00274658203125 74.87969207763672 0.0029144287109375 74.85936737060547 C 0.0029296875 74.85821533203125 0.0029449462890625 74.85713958740234 0.0029449462890625 74.85598754882813 C 0.0031280517578125 74.83566284179688 0.0032806396484375 74.81831359863281 0.00347900390625 74.79798889160156 C 0.00347900390625 74.79716491699219 0.0034942626953125 74.79646301269531 0.0034942626953125 74.79563903808594 C 0.0042724609375 74.71434783935547 0.0051422119140625 74.63561248779297 0.0061798095703125 74.55438232421875 C 0.0061798095703125 74.55397033691406 0.0061798095703125 74.55339050292969 0.006195068359375 74.552978515625 C 0.0066986083984375 74.51235961914063 0.007232666015625 74.47270202636719 0.0078125 74.43209838867188 C 0.0078277587890625 74.43185424804688 0.0078277587890625 74.43155670166016 0.0078277587890625 74.43131256103516 C 0.00811767578125 74.4110107421875 0.008392333984375 74.39215850830078 0.008697509765625 74.37186431884766 C 0.0087127685546875 74.37120819091797 0.00872802734375 74.37045288085938 0.00872802734375 74.36979675292969 C 0.009033203125 74.34949493408203 0.0093231201171875 74.33123016357422 0.0096435546875 74.31093597412109 C 0.0096435546875 74.31027984619141 0.0096588134765625 74.30953979492188 0.009674072265625 74.30887603759766 C 0.0099945068359375 74.28858947753906 0.0102996826171875 74.26979064941406 0.0106353759765625 74.24950408935547 C 0.0106353759765625 74.24917602539063 0.010650634765625 74.24874114990234 0.010650634765625 74.2484130859375 C 0.010986328125 74.22812652587891 0.011322021484375 74.20878601074219 0.0116729736328125 74.18850708007813 C 0.0116729736328125 74.18825531005859 0.011688232421875 74.18789672851563 0.011688232421875 74.18765258789063 C 0.0198211669921875 73.72112274169922 0.0321502685546875 73.25643920898438 0.0486907958984375 72.79201507568359 C 0.0487060546875 72.79177093505859 0.0487060546875 72.79170227050781 0.0487213134765625 72.79145812988281 C 0.0494384765625 72.77126312255859 0.0500946044921875 72.75282287597656 0.05084228515625 72.73263549804688 C 0.050872802734375 72.73173522949219 0.0509033203125 72.73085021972656 0.050933837890625 72.72994995117188 C 0.051666259765625 72.70976257324219 0.0522613525390625 72.69375610351563 0.053009033203125 72.67356872558594 C 0.0530853271484375 72.67169189453125 0.0531463623046875 72.66976928710938 0.05322265625 72.66789245605469 C 0.0539703369140625 72.647705078125 0.05450439453125 72.63369750976563 0.055267333984375 72.61351776123047 C 0.05535888671875 72.61114501953125 0.055450439453125 72.60873413085938 0.0555419921875 72.60636138916016 C 0.056304931640625 72.586181640625 0.05682373046875 72.5726318359375 0.0576019287109375 72.55245971679688 C 0.0576934814453125 72.55033111572266 0.057769775390625 72.54821014404297 0.057861328125 72.54608917236328 C 0.0586395263671875 72.52590942382813 0.0591888427734375 72.51200866699219 0.0599822998046875 72.49183654785156 C 0.0600738525390625 72.48947143554688 0.0601654052734375 72.48732757568359 0.0602569580078125 72.48495483398438 C 0.0609588623046875 72.46730804443359 0.061676025390625 72.44921112060547 0.0623931884765625 72.43156433105469 C 0.0625 72.42878723144531 0.0626068115234375 72.42607116699219 0.0627288818359375 72.42329406738281 C 0.063446044921875 72.40564727783203 0.0641021728515625 72.38922882080078 0.0648345947265625 72.37158203125 C 0.064971923828125 72.36806488037109 0.06512451171875 72.36443328857422 0.065277099609375 72.36091613769531 C 0.0659027099609375 72.34579467773438 0.06671142578125 72.32638549804688 0.0673370361328125 72.31126403808594 C 0.0675048828125 72.30718231201172 0.06768798828125 72.30296325683594 0.0678558349609375 72.29887390136719 C 0.0684967041015625 72.28375244140625 0.0691375732421875 72.26858520507813 0.0697784423828125 72.25347137451172 C 0.07000732421875 72.24807739257813 0.07025146484375 72.24264526367188 0.0704803466796875 72.23725128173828 C 0.0711212158203125 72.22213745117188 0.071563720703125 72.21195983886719 0.0722198486328125 72.19684600830078 C 0.072540283203125 72.18949127197266 0.0728607177734375 72.18208312988281 0.07318115234375 72.17473602294922 C 0.0736236572265625 72.16465759277344 0.0742645263671875 72.15015411376953 0.07470703125 72.14007568359375 C 0.07513427734375 72.13059997558594 0.0755462646484375 72.12113952636719 0.0759735107421875 72.11166381835938 C 0.076416015625 72.10159301757813 0.0769195556640625 72.09056854248047 0.077362060546875 72.08049774169922 C 0.07781982421875 72.07020568847656 0.0782928466796875 72.059814453125 0.078765869140625 72.04953002929688 C 0.0792236328125 72.03945159912109 0.0795745849609375 72.0316162109375 0.0800323486328125 72.02154541015625 C 0.0805816650390625 72.00979614257813 0.08111572265625 71.99809265136719 0.0816497802734375 71.98633575439453 C 0.082122802734375 71.97626495361328 0.08233642578125 71.97175598144531 0.082794189453125 71.96168518066406 C 0.083465576171875 71.94724273681641 0.0841522216796875 71.93265533447266 0.0848388671875 71.918212890625 C 0.0850677490234375 71.91317749023438 0.085357666015625 71.90721893310547 0.0855865478515625 71.90218353271484 C 0.0919647216796875 71.7672119140625 0.0987091064453125 71.63224029541016 0.105804443359375 71.49745178222656 C 0.52685546875 63.49272918701172 7.149093627929688 57.28501892089844 15.07217407226563 57.28501892089844 C 15.33755493164063 57.28501892089844 15.60488891601563 57.29199981689453 15.87300109863281 57.30610656738281 C 24.14585876464844 57.74125671386719 30.49955749511719 64.80050659179688 30.06435394287109 73.07330322265625 C 30.0216064453125 73.88665771484375 30.00000762939453 74.70565795898438 30.00000762939453 75.52965545654297 C 30.00000762939453 100.6348037719727 50.42450714111328 121.0593032836914 75.52965545654297 121.0593032836914 C 100.6348037719727 121.0593032836914 121.0593032836914 100.6348037719727 121.0593032836914 75.52965545654297 C 121.0593032836914 50.42450714111328 100.6348037719727 30.00000762939453 75.52965545654297 30.00000762939453 C 67.24535369873047 30.00000762939453 60.52965545654297 23.28425598144531 60.52965545654297 15 C 60.52965545654297 6.7156982421875 67.24535369873047 0 75.52965545654297 0 C 75.52965545654297 0 75.52965545654297 0 75.52965545654297 0 Z"/></g><text class="e" transform="translate(517.222 336.042)"><tspan x="5.51" y="12">Overall</tspan><tspan x="7.265" y="27">Rating</tspan></text><circle class="b" cx="4.799" cy="4.799" r="4.799" transform="translate(579.248 301.215)"/></g><g transform="translate(8 5)"><g transform="translate(115 146)"><text class="f" transform="translate(213.5 317.5)"><tspan x="0" y="15">5% </tspan><tspan y="15">Bad</tspan></text><rect class="g" width="12" height="12" rx="6" transform="translate(196.5 320.5)"/></g><g transform="translate(-5 65)"><text class="f" transform="translate(213.5 398.5)"><tspan x="0" y="15">95% </tspan><tspan y="15">Good</tspan></text><rect class="h" width="12" height="12" rx="6" transform="translate(196.5 401.5)"/></g></g></g></svg>