<svg xmlns="http://www.w3.org/2000/svg" width="23" height="23" viewBox="0 0 23 23"><defs><style>.a{fill:#fff;stroke:#fa5179;}.b{fill:#fa5179;}.c{stroke:none;}.d{fill:none;}</style></defs><g class="a" transform="translate(0)"><ellipse class="c" cx="11.5" cy="11.5" rx="11.5" ry="11.5"/><ellipse class="d" cx="11.5" cy="11.5" rx="11" ry="11"/></g><g transform="translate(7.355 5.144)"><path class="b" d="M.751,1.449H2.124V1.377A1.379,1.379,0,0,1,3.5,0H5.407A1.379,1.379,0,0,1,6.785,1.377v.072H8.158a.751.751,0,0,1,.751.751v.573a.25.25,0,0,1-.25.25H.25A.25.25,0,0,1,0,2.773V2.2a.751.751,0,0,1,.751-.751Zm5.282-.072A.627.627,0,0,0,5.407.751H3.5a.627.627,0,0,0-.626.626v.072H6.033Zm0,0" transform="translate(0 0)"/><path class="b" d="M21.21,150.738l-.607,8.7a.376.376,0,0,1-.375.349h-6.3a.376.376,0,0,1-.375-.349l-.607-8.7Zm-2.644,7.769h.016a.376.376,0,0,0,.375-.36l.25-5.885a.376.376,0,1,0-.751-.032l-.25,5.885A.376.376,0,0,0,18.566,158.507Zm-1.862-.375a.376.376,0,1,0,.751,0v-5.885a.376.376,0,1,0-.751,0Zm-1.5.016a.376.376,0,0,0,.375.36h.016a.376.376,0,0,0,.359-.391l-.25-5.885a.376.376,0,0,0-.751.032Zm0,0" transform="translate(-12.625 -146.963)"/></g></svg>