<svg xmlns="http://www.w3.org/2000/svg" width="67.409" height="60.339" viewBox="0 0 67.409 60.339"><defs><style>.a{fill:#1e306e;}</style></defs><path class="a" d="M12.128,246.868A12.142,12.142,0,0,0,0,259c0,3.381,1.849,7.465,5.495,12.137a55.581,55.581,0,0,0,5.286,5.852l1.348,1.258,1.348-1.258a55.581,55.581,0,0,0,5.286-5.852c3.646-4.673,5.495-8.756,5.495-12.137a12.142,12.142,0,0,0-12.129-12.128Zm0,16.052A3.924,3.924,0,1,1,16.052,259,3.928,3.928,0,0,1,12.128,262.92Z" transform="translate(0 -217.905)"/><path class="a" d="M339.929,26.854A12.142,12.142,0,0,0,327.8,38.982c0,3.381,1.849,7.465,5.495,12.137a55.614,55.614,0,0,0,5.286,5.852l1.348,1.258,1.347-1.258a55.584,55.584,0,0,0,5.286-5.852c3.646-4.673,5.495-8.756,5.495-12.137A12.142,12.142,0,0,0,339.929,26.854Zm0,16.052a3.924,3.924,0,1,1,3.924-3.924A3.928,3.928,0,0,1,339.929,42.906Z" transform="translate(-284.649 -26.854)"/><g transform="translate(20.027 26.7)"><path class="a" d="M180.148,262.588H152.135v-3.949h28.013a5.266,5.266,0,1,0,0-10.532H169.1a9.215,9.215,0,1,1,0-18.431h10.386v3.949H169.1a5.266,5.266,0,1,0,0,10.532h11.044a9.215,9.215,0,1,1,0,18.431Z" transform="translate(-152.135 -229.676)"/></g></svg>