<svg xmlns="http://www.w3.org/2000/svg" width="86.288" height="97.273" viewBox="0 0 86.288 97.273">
  <g id="noun_Driver_1574358" transform="translate(-7.484 -2.072)" opacity="0.6">
    <g id="Group_15135" data-name="Group 15135" transform="translate(7.484 2.072)">
      <path id="Path_26163" data-name="Path 26163" d="M57.647,29.717c-2.348-.061-4.776-.125-7.3-.125s-4.952.063-7.3.125c-2.116.055-4.114.107-5.989.107a34.706,34.706,0,0,1-9.015-.889,23.848,23.848,0,1,0,44.613,0,33.2,33.2,0,0,1-9.017.884C61.762,29.824,59.763,29.772,57.647,29.717Z" transform="translate(-7.203 -1.675)"/>
      <path id="Path_26164" data-name="Path 26164" d="M70.167,58.626a29.244,29.244,0,0,1-39.077,0A45.291,45.291,0,0,0,7.484,98.509H93.772A45.281,45.281,0,0,0,70.167,58.626Z" transform="translate(-7.484 -1.236)"/>
      <path id="Path_26165" data-name="Path 26165" d="M50.384,27.688c14.567,0,26.377,2.091,26.377-6.3S64.951,2.072,50.384,2.072,24.007,13,24.007,21.39,35.817,27.688,50.384,27.688Z" transform="translate(-7.24 -2.072)"/>
    </g>
  </g>
</svg>
