<svg xmlns="http://www.w3.org/2000/svg" xmlns:xlink="http://www.w3.org/1999/xlink" width="464.493" height="569" viewBox="0 0 464.493 569"><defs><style>.a{fill:#fff;}.b{fill:#061033;font-size:24px;font-family:Gilroy-Bold, Gilroy;font-weight:700;}.c,.m{fill:#6d6d6d;font-family:Gilroy-Regular, Gilroy;}.c,.i{font-size:14px;}.d{font-size:13px;}.d,.e,.f,.g,.i,.j{font-family:Gilroy-Medium, Gilroy;font-weight:500;}.d,.f,.i{opacity:0.5;}.e{font-size:19px;}.f,.j,.m,.n{font-size:12px;}.g{fill:#212121;font-size:30px;}.h{fill:#3ed753;}.j{opacity:0.4;}.k{opacity:0.03;}.l,.q{fill:none;stroke:#000;stroke-width:0.5px;}.n{fill:#565656;font-family:Gilroy-SemiBold, Gilroy;font-weight:600;}.o,.p{fill:#fa6400;}.o{opacity:0.34;}.q{opacity:0.1;}.r{filter:url(#a);}</style><filter id="a" x="0" y="0" width="464.493" height="569" filterUnits="userSpaceOnUse"><feOffset dy="10" input="SourceAlpha"/><feGaussianBlur stdDeviation="15" result="b"/><feFlood flood-color="#7088d2" flood-opacity="0.102"/><feComposite operator="in" in2="b"/><feComposite in="SourceGraphic"/></filter></defs><g transform="translate(-73 -322.5)"><g class="r" transform="matrix(1, 0, 0, 1, 73, 322.5)"><rect class="a" width="374.493" height="479" rx="10" transform="translate(45 35)"/></g><g transform="translate(118 344)"><text class="b" transform="translate(32.5 56)"><tspan x="0" y="0">My Earnings</tspan></text><g transform="translate(5518.5 -10543.5)"><g transform="translate(-5518 10605)"><text class="c" transform="translate(119 85)"><tspan x="-86.1" y="0">Lorem ipsum dolor sit amet</tspan></text><g transform="translate(35 373.099)"><text class="d" transform="translate(13 35.901)"><tspan x="-13.65" y="0">Trips</tspan></text><text class="e" transform="translate(13 17.901)"><tspan x="-11.096" y="0">90</tspan></text></g><g transform="translate(165 373.099)"><text class="f" transform="translate(12 35.901)"><tspan x="-8.118" y="0">km</tspan></text><text class="e" transform="translate(12 17.901)"><tspan x="-8.54" y="0">15</tspan></text></g><g transform="translate(292 373.099)"><text class="f" transform="translate(30 35.901)"><tspan x="-29.346" y="0">Customers</tspan></text><text class="e" transform="translate(30 17.901)"><tspan x="-14.278" y="0">120</tspan></text></g></g><g transform="translate(-5486 10633.163)"><text class="g" transform="translate(34 27.837)"><tspan x="-33.795" y="0">$360</tspan></text><g transform="translate(87 16.093)"><path class="h" d="M8.885,14.3H5.331V7.149H0L7.108,0l7.108,7.149H8.885Z" transform="translate(23.106 3.04)"/><text class="i" transform="translate(1 12.744)"><tspan x="-13.643" y="0">USD</tspan></text></g></g></g></g><text class="j" transform="translate(150.5 534.5)"><tspan x="0" y="0">400</tspan></text><text class="j" transform="translate(150.5 576.5)"><tspan x="0" y="0">300</tspan></text><text class="j" transform="translate(150.5 618.5)"><tspan x="0" y="0">200</tspan></text><text class="j" transform="translate(150.5 660.5)"><tspan x="0" y="0">100</tspan></text><text class="j" transform="translate(150.5 702.5)"><tspan x="0" y="0">0</tspan></text><g class="k"><line class="l" x2="318" transform="translate(151 538)"/><line class="l" x2="318" transform="translate(151 538)"/></g><g class="k" transform="translate(0 42)"><line class="l" x2="318" transform="translate(151 538)"/><line class="l" x2="318" transform="translate(151 538)"/></g><g class="k" transform="translate(0 84)"><line class="l" x2="318" transform="translate(151 538)"/><line class="l" x2="318" transform="translate(151 538)"/></g><g class="k" transform="translate(0 126)"><line class="l" x2="318" transform="translate(151 538)"/><line class="l" x2="318" transform="translate(151 538)"/></g><g class="k" transform="translate(0 168)"><line class="l" x2="318" transform="translate(151 538)"/><line class="l" x2="318" transform="translate(151 538)"/></g><text class="m" transform="translate(177.5 724.5)"><tspan x="13.68" y="11">10</tspan></text><text class="m" transform="translate(228.5 724.5)"><tspan x="15.42" y="11">11</tspan></text><text class="m" transform="translate(281.5 724.5)"><tspan x="14.31" y="11">12</tspan></text><text class="m" transform="translate(330.5 724.5)"><tspan x="14.28" y="11">13</tspan></text><text class="m" transform="translate(385.5 724.5)"><tspan x="13.98" y="11">14</tspan></text><text class="n" transform="translate(437.5 724.5)"><tspan x="2.532" y="11">Today</tspan></text><rect class="o" width="7" height="55" rx="3.5" transform="translate(192.5 649.5)"/><rect class="p" width="7" height="167" rx="3.5" transform="translate(453.5 537.5)"/><rect class="o" width="7" height="137" rx="3.5" transform="translate(400.5 567.5)"/><rect class="o" width="7" height="123" rx="3.5" transform="translate(348.5 581.5)"/><rect class="o" width="7" height="99" rx="3.5" transform="translate(296.5 605.5)"/><rect class="o" width="7" height="105" rx="3.5" transform="translate(244.5 599.5)"/><line class="q" x2="318" transform="translate(151 763)"/></g></svg>