<svg xmlns="http://www.w3.org/2000/svg" xmlns:xlink="http://www.w3.org/1999/xlink" width="46" height="46" viewBox="0 0 46 46"><defs><style>.a{fill:#1e306e;}.b{fill:#fff;}.c{filter:url(#a);}</style><filter id="a" x="0" y="0" width="46" height="46" filterUnits="userSpaceOnUse"><feOffset dy="2" input="SourceAlpha"/><feGaussianBlur stdDeviation="2.5" result="b"/><feFlood flood-color="#8f8f8f" flood-opacity="0.4"/><feComposite operator="in" in2="b"/><feComposite in="SourceGraphic"/></filter></defs><g transform="translate(-301.5 -227.5)"><g class="c" transform="matrix(1, 0, 0, 1, 301.5, 227.5)"><circle class="a" cx="15.5" cy="15.5" r="15.5" transform="translate(7.5 5.5)"/></g><g transform="translate(318 241.998)"><g transform="translate(0 0.002)"><g transform="translate(0 0)"><path class="b" d="M9.78,80.814a.309.309,0,0,0-.424,0l-5.7,5.709A.3.3,0,0,0,3.73,87l.468.234v.789l-1.435.411L1.315,86.988l.41-1.436h.788l.234.469a.3.3,0,0,0,.48.078l5.7-5.709a.3.3,0,0,0,0-.424l-1.1-1.1a.3.3,0,0,0-.212-.088h0a.3.3,0,0,0-.212.089L1.286,85.04s0,.008-.006.011a.293.293,0,0,0-.07.118L.69,86.993.011,89.371a.3.3,0,0,0,.288.383.3.3,0,0,0,.082-.011l2.377-.679,1.822-.521c.005,0,.009-.006.015-.008a.556.556,0,0,0,.1-.06s.009,0,.013-.008l6.173-6.123a.3.3,0,0,0,0-.425Z" transform="translate(0 -76.558)"/><path class="b" d="M294.986,2.143l-1.8-1.8a1.226,1.226,0,0,0-1.7,0l-1.1,1.109a.3.3,0,0,0,0,.424l3.062,3.064a.3.3,0,0,0,.423,0l1.109-1.1a1.2,1.2,0,0,0,0-1.7Z" transform="translate(-282.142 -0.002)"/></g></g></g></g></svg>