<svg xmlns="http://www.w3.org/2000/svg" width="11.162" height="11.26" viewBox="0 0 11.162 11.26"><defs><style>.a{fill:#fa6400;}</style></defs><g transform="translate(0 -0.736)"><path class="a" d="M5.332,0H1.607a.668.668,0,0,0,0,1.335H3.72L.2,4.86A.668.668,0,1,0,1.14,5.8L4.665,2.28V4.393A.668.668,0,0,0,6,4.393V.668A.669.669,0,0,0,5.332,0Z" transform="translate(5.143 0.736)"/><path class="a" d="M9.713,9.713H1.449V1.449H2.521L3.97,0H.724A.724.724,0,0,0,0,.724v9.713a.724.724,0,0,0,.724.724h9.713a.724.724,0,0,0,.724-.724v-4.1L9.713,7.783Z" transform="translate(0 0.835)"/></g></svg>