<svg xmlns="http://www.w3.org/2000/svg" width="14" height="11.667" viewBox="0 0 14 11.667">
  <g id="Group_14974" data-name="Group 14974" transform="translate(-776.5 -168.583)">
    <path id="Path" d="M12.833,2.333H1.167A1.167,1.167,0,0,1,1.167,0H12.833a1.167,1.167,0,0,1,0,2.333Z" transform="translate(776.5 168.583)" fill="#fff"/>
    <path id="Path-2" data-name="Path" d="M8.167,2.333h-7A1.167,1.167,0,0,1,1.167,0h7a1.167,1.167,0,1,1,0,2.333Z" transform="translate(778.834 173.25)" fill="#fff"/>
    <path id="Path-3" data-name="Path" d="M3.5,2.333H1.167A1.167,1.167,0,0,1,1.167,0H3.5a1.167,1.167,0,1,1,0,2.333Z" transform="translate(781.167 177.917)" fill="#fff"/>
  </g>
</svg>
