<svg xmlns="http://www.w3.org/2000/svg" width="38.207" height="40.643" viewBox="0 0 38.207 40.643"><defs><style>.a{fill:#fff;stroke:#fc9f5a;}</style></defs><g transform="translate(-15.811 0.5)"><g transform="translate(16.417)"><g transform="translate(0)"><path class="a" d="M213.122,186.318a1.268,1.268,0,0,0,1.268-1.268V183.8a3.813,3.813,0,1,0-7.627,0v4.229a1.268,1.268,0,0,0,1.268,1.268h5.09a1.268,1.268,0,1,0,0-2.536H209.3V183.8a1.276,1.276,0,1,1,2.553,0v1.248A1.268,1.268,0,0,0,213.122,186.318Z" transform="translate(-192.026 -166.051)"/><path class="a" d="M53.188,26.586,36.237,7.938V5.5h1.911a1.268,1.268,0,0,0,0-2.537H36.237V1.268a1.268,1.268,0,1,0-2.537,0V2.962H31.787a1.268,1.268,0,1,0,0,2.537H33.7V7.936L16.746,26.585a1.269,1.269,0,0,0,1.878,1.707L34.968,10.313,51.311,28.292a1.268,1.268,0,1,0,1.877-1.706Z" transform="translate(-16.417)"/><path class="a" d="M107.784,322.964a1.268,1.268,0,0,0-1.268,1.268v9.878h-5.577v-7.155a5.026,5.026,0,0,0-10.051,0v7.155H84.663v-9.878a1.268,1.268,0,1,0-2.537,0v11.145a1.268,1.268,0,0,0,1.268,1.268H96.473a1.268,1.268,0,1,0,0-2.536h-3.05v-7.154a2.489,2.489,0,1,1,4.978,0v8.422a1.268,1.268,0,0,0,1.268,1.268h8.114a1.267,1.267,0,0,0,1.268-1.268V324.233A1.268,1.268,0,0,0,107.784,322.964Z" transform="translate(-77.038 -297.004)"/></g></g></g></svg>