<svg xmlns="http://www.w3.org/2000/svg" width="24.372" height="21.815" viewBox="0 0 24.372 21.815"><defs><style>.a{fill:#1e306e;}</style></defs><g transform="translate(0 -26.854)"><path class="a" d="M4.385,246.868A4.39,4.39,0,0,0,0,251.253a7.694,7.694,0,0,0,1.987,4.388A20.093,20.093,0,0,0,3.9,257.757l.487.455.487-.455a20.093,20.093,0,0,0,1.911-2.116,7.694,7.694,0,0,0,1.987-4.388,4.39,4.39,0,0,0-4.385-4.385Zm0,5.8A1.419,1.419,0,1,1,5.8,251.253,1.42,1.42,0,0,1,4.385,252.672Z" transform="translate(0 -209.542)"/><path class="a" d="M332.186,26.854a4.39,4.39,0,0,0-4.385,4.385,7.694,7.694,0,0,0,1.987,4.388,20.1,20.1,0,0,0,1.911,2.116l.487.455.487-.455a20.1,20.1,0,0,0,1.911-2.116,7.694,7.694,0,0,0,1.987-4.388,4.39,4.39,0,0,0-4.385-4.385Zm0,5.8a1.419,1.419,0,1,1,1.419-1.419A1.42,1.42,0,0,1,332.186,32.658Z" transform="translate(-312.199)"/><g transform="translate(7.241 36.507)"><path class="a" d="M162.263,241.575H152.135v-1.428h10.128a1.9,1.9,0,0,0,0-3.808H158.27a3.332,3.332,0,1,1,0-6.664h3.755V231.1H158.27a1.9,1.9,0,1,0,0,3.808h3.993a3.332,3.332,0,1,1,0,6.664Z" transform="translate(-152.135 -229.676)"/></g></g></svg>