<svg xmlns="http://www.w3.org/2000/svg" width="16" height="19" viewBox="0 0 16 19"><defs><style>.a{fill:#f77016;}</style></defs><g transform="translate(0 0)"><path class="a" d="M7.967,19a.978.978,0,0,1-.635-.235A20.726,20.726,0,0,1,2.07,13.815,10.3,10.3,0,0,1,0,7.971,8.009,8.009,0,0,1,8.011,0h.017A8.009,8.009,0,0,1,16,8.038v.048c-.035,1.774-.7,4.533-3.652,7.6A20.91,20.91,0,0,1,8.6,18.765.98.98,0,0,1,7.967,19ZM8.028,5.634A2.537,2.537,0,0,0,5.5,8.171,2.525,2.525,0,0,0,8,10.7h.029A2.535,2.535,0,0,0,10.57,8.171,2.542,2.542,0,0,0,8.028,5.634Z" transform="translate(0 0)"/></g></svg>