<svg xmlns="http://www.w3.org/2000/svg" width="21.371" height="22.054" viewBox="0 0 21.371 22.054"><defs><style>.a{fill:#1e306e;}</style></defs><g transform="translate(-0.386 -0.152)"><path class="a" d="M0,2.757V19.3a2.758,2.758,0,0,0,2.757,2.757h9.189A2.758,2.758,0,0,0,14.7,19.3V18.149a1.149,1.149,0,1,0-2.3,0V19.3a.461.461,0,0,1-.459.459H2.757A.461.461,0,0,1,2.3,19.3V2.757A.461.461,0,0,1,2.757,2.3h9.189a.461.461,0,0,1,.459.459V3.905a1.149,1.149,0,1,0,2.3,0V2.757A2.758,2.758,0,0,0,11.946,0H2.757A2.758,2.758,0,0,0,0,2.757" transform="translate(0.386 0.152)"/><path class="a" d="M10.489,5.008,7.053,8.45A.92.92,0,0,1,5.481,7.8V6.2H.919A.917.917,0,0,1,0,5.279V3.442a.92.92,0,0,1,.919-.919H5.481V.919A.92.92,0,0,1,7.053.271l3.437,3.441a.917.917,0,0,1,0,1.3" transform="translate(11 6.818)"/></g></svg>