<svg xmlns="http://www.w3.org/2000/svg" width="20.592" height="15.444" viewBox="0 0 20.592 15.444"><defs><style>.a{fill:#1e306e;}</style></defs><g transform="translate(-0.343 -0.135)"><path class="a" d="M18.447,15.444H2.145A2.147,2.147,0,0,1,0,13.3V2.145A2.147,2.147,0,0,1,2.145,0h16.3a2.147,2.147,0,0,1,2.145,2.145V13.3A2.147,2.147,0,0,1,18.447,15.444ZM3.434,2.575A.857.857,0,0,0,2.948,4.14L8.593,8.023a3.034,3.034,0,0,0,3.406,0L17.645,4.14a.857.857,0,0,0-.486-1.565.854.854,0,0,0-.483.149l-5.65,3.883a1.295,1.295,0,0,1-1.458,0L3.917,2.724A.854.854,0,0,0,3.434,2.575Z" transform="translate(0.343 0.135)"/></g></svg>