<svg xmlns="http://www.w3.org/2000/svg" width="86.805" height="97.856" viewBox="0 0 86.805 97.856">
  <g id="noun_Driver_1574358" transform="translate(-7.484 -2.072)">
    <g id="Group_74678" data-name="Group 74678" transform="translate(7.484 2.072)">
      <path id="Path_26134" data-name="Path 26134" d="M57.833,29.722c-2.362-.061-4.8-.126-7.343-.126s-4.982.063-7.344.126c-2.129.055-4.139.107-6.025.107a34.914,34.914,0,0,1-9.069-.894,23.991,23.991,0,1,0,44.88,0,33.4,33.4,0,0,1-9.071.889C61.973,29.829,59.962,29.777,57.833,29.722Z" transform="translate(-7.087 -1.512)" fill="#fff"/>
      <path id="Path_26135" data-name="Path 26135" d="M70.543,58.626a29.419,29.419,0,0,1-39.311,0A45.563,45.563,0,0,0,7.484,98.748H94.289A45.552,45.552,0,0,0,70.543,58.626Z" transform="translate(-7.484 -0.892)" fill="#fff"/>
      <path id="Path_26136" data-name="Path 26136" d="M50.542,27.842c14.655,0,26.535,2.1,26.535-6.335S65.2,2.072,50.542,2.072s-26.535,11-26.535,19.434S35.888,27.842,50.542,27.842Z" transform="translate(-7.139 -2.072)" fill="#fff"/>
    </g>
  </g>
</svg>
