<svg xmlns="http://www.w3.org/2000/svg" width="54.599" height="61.549" viewBox="0 0 54.599 61.549"><defs><style>.a{fill:#1f2d6e;}</style></defs><g transform="translate(0 0)"><g transform="translate(0 0)"><g transform="translate(0)"><path class="a" d="M57.387,14.3c0,5.308-7.473,3.985-16.69,3.985S24.007,19.6,24.007,14.3,31.48,2.072,40.7,2.072,57.387,8.988,57.387,14.3Z" transform="translate(-13.398 -2.072)"/><g transform="translate(0 36.314)"><path class="a" d="M17.554,82.987a17.23,17.23,0,0,1,34.459,0c0,.293-.013.584-.028.875h10.1A28.651,28.651,0,0,0,47.147,58.626a18.5,18.5,0,0,1-24.726,0A28.658,28.658,0,0,0,7.484,83.862h10.1C17.567,83.572,17.554,83.281,17.554,82.987Z" transform="translate(-7.484 -58.626)"/><path class="a" d="M37.495,93.234l-8.085-4.289a13.754,13.754,0,0,0-.909,4.893c0,.3.021.585.042.875h8.709A5.273,5.273,0,0,1,37.495,93.234Z" transform="translate(-15.006 -69.477)"/><path class="a" d="M66.7,93.839a13.75,13.75,0,0,0-.909-4.893l-7.7,4.082a5.312,5.312,0,0,1,.324,1.685h8.241C66.683,94.424,66.7,94.134,66.7,93.839Z" transform="translate(-25.599 -69.477)"/><path class="a" d="M43.968,84.59a5.263,5.263,0,0,1,2.651.716l8.356-4.432a13.778,13.778,0,0,0-22.477,0l8.6,4.563A5.267,5.267,0,0,1,43.968,84.59Z" transform="translate(-16.436 -64.51)"/></g></g><path class="a" d="M41.589,49.365A15.091,15.091,0,0,0,55.7,28.938,21.01,21.01,0,0,1,50,29.5c-1.187,0-2.452-.033-3.79-.067-1.485-.039-3.022-.079-4.619-.079s-3.133.04-4.619.079c-1.339.035-2.6.067-3.79.067a21.96,21.96,0,0,1-5.7-.562,15.091,15.091,0,0,0,14.113,20.43Z" transform="translate(-14.29 -11.686)"/></g></g></svg>