<svg xmlns="http://www.w3.org/2000/svg" width="60.785" height="62.288" viewBox="0 0 60.785 62.288"><defs><style>.a{fill:#1f2d6e;}</style></defs><g transform="translate(0 0)"><g transform="translate(0 0)"><path class="a" d="M72.191,59.693,61.7,46.583a4.059,4.059,0,0,0-3.261-1.6H48.849L46.611,39.8h8.953a3.452,3.452,0,0,0,3.453-2.75,3.346,3.346,0,0,0-3.261-3.9H46.163s-3.2-3.07-4.732-4.412c-2.238-2.046-4.285-2.686-6.651-1.918a6.573,6.573,0,0,0-4.029,3.453,6.659,6.659,0,0,0-.128,5.308L37.019,50.8a4.211,4.211,0,0,0,3.9,2.558H55.5a1.819,1.819,0,0,1,1.471.7L65.8,65.192a4.245,4.245,0,0,0,3.261,1.6,3.91,3.91,0,0,0,2.558-.9A4.375,4.375,0,0,0,72.191,59.693Z" transform="translate(-12.429 -9.171)"/><path class="a" d="M44.624,58.452a2.715,2.715,0,0,0-2.046-.959H30.363A7.711,7.711,0,0,1,23.2,52.7l-9.72-23.469h0a5.728,5.728,0,0,0-6.906-3.261,5.874,5.874,0,0,0-3.581,3.07A5.926,5.926,0,0,0,2.865,33.7L17,67.724a5.569,5.569,0,0,0,5.18,3.453H49.484a2.581,2.581,0,0,0,2.366-1.535,2.554,2.554,0,0,0-.384-2.814Z" transform="translate(-2.448 -8.889)"/><ellipse class="a" cx="6.97" cy="6.97" rx="6.97" ry="6.97" transform="translate(9.623 12.187) rotate(-60.954)"/></g></g></svg>