<svg xmlns="http://www.w3.org/2000/svg" width="24.346" height="22.824" viewBox="0 0 24.346 22.824"><defs><style>.a{fill:#1e306e;}</style></defs><g transform="translate(0 -2.386)"><path class="a" d="M.761,8.472h.761v4.565H.761A.759.759,0,0,1,0,12.276V9.232A.762.762,0,0,1,.761,8.472Zm22.824,0h-.762v4.565h.762a.76.76,0,0,0,.761-.761V9.232A.761.761,0,0,0,23.585,8.472ZM21.3,6.951V20.645a1.52,1.52,0,0,1-1.522,1.522v1.522A1.52,1.52,0,0,1,18.26,25.21H16.738a1.521,1.521,0,0,1-1.522-1.522V22.167H9.13v1.522A1.52,1.52,0,0,1,7.608,25.21H6.087a1.521,1.521,0,0,1-1.522-1.522V22.167a1.521,1.521,0,0,1-1.522-1.522V6.951A4.565,4.565,0,0,1,7.608,2.386h9.13A4.565,4.565,0,0,1,21.3,6.951ZM9.13,5.429h6.086V3.908H9.13ZM7.608,19.124a1.521,1.521,0,1,0-1.521,1.522A1.52,1.52,0,0,0,7.608,19.124Zm12.173,0a1.522,1.522,0,1,0-1.522,1.522A1.52,1.52,0,0,0,19.781,19.124Zm0-12.173H4.565v9.13H19.781V6.951Z"/></g></svg>