<svg xmlns="http://www.w3.org/2000/svg" width="48.185" height="41.771" viewBox="0 0 48.185 41.771"><defs><style>.a{opacity:0.13;}</style></defs><g class="a" transform="translate(0 4.271)"><path d="M193.445,200.192a6.014,6.014,0,1,1-8.518,0,5.991,5.991,0,0,1,8.518,0" transform="translate(-165.094 -185.995)"/><path d="M42.161,36.489H38l-3.013-5.967H13.195l-3.01,5.97L6.029,36.5A6.006,6.006,0,0,0,.016,42.464L0,66.324a6,6,0,0,0,6.023,5.969H42.161a6,6,0,0,0,6.023-5.967V42.456A6,6,0,0,0,42.161,36.489ZM24.092,64.834A11.935,11.935,0,1,1,36.138,52.9,12,12,0,0,1,24.092,64.834Z" transform="translate(0 -34.793)"/></g></svg>