<svg xmlns="http://www.w3.org/2000/svg" width="22" height="22" viewBox="0 0 22 22"><defs><style>.a{fill:#fa6a0b;}</style></defs><g transform="translate(0)"><path class="a" d="M18.778,3.222A11,11,0,0,0,3.222,18.778,11,11,0,0,0,18.778,3.222ZM11.69,15.787h-.046v1.427a.645.645,0,0,1-1.289,0V15.787H8.929a.645.645,0,0,1,0-1.289H11.69a1.427,1.427,0,0,0,0-2.853H10.31a2.716,2.716,0,0,1,0-5.431h.046V4.787a.645.645,0,0,1,1.289,0V6.213h1.427a.645.645,0,0,1,0,1.289H10.31a1.427,1.427,0,0,0,0,2.853H11.69a2.716,2.716,0,0,1,0,5.431Z" transform="translate(0)"/></g></svg>