<svg xmlns="http://www.w3.org/2000/svg" width="21.844" height="21.845" viewBox="0 0 21.844 21.845">
  <g id="Group_87022" data-name="Group 87022" transform="translate(-0.001)">
    <path id="Path_26174" data-name="Path 26174" d="M294.864,290.132a4.733,4.733,0,1,0,4.733,4.733A4.738,4.738,0,0,0,294.864,290.132Zm.364,6.917a.364.364,0,0,1-.728,0v-2.913a.364.364,0,1,1,.728,0Zm-.364-4a.364.364,0,1,1,.364-.364A.364.364,0,0,1,294.864,293.045Z" transform="translate(-277.751 -277.753)" fill="#1e306e"/>
    <path id="Path_26175" data-name="Path 26175" d="M12.494,14.211l-.705-.385a.961.961,0,0,1-.5-.845v-1.2a7.652,7.652,0,0,0,1.275-2.635,1.447,1.447,0,0,0,.545-1.132V6.553a1.451,1.451,0,0,0-.364-.956V3.661a3.265,3.265,0,0,0-.762-2.376A4.582,4.582,0,0,0,8.375,0,4.582,4.582,0,0,0,4.768,1.285a3.262,3.262,0,0,0-.762,2.376V5.6a1.449,1.449,0,0,0-.364.956V8.01a1.447,1.447,0,0,0,.545,1.132,7.644,7.644,0,0,0,1.275,2.635v1.2a.961.961,0,0,1-.5.845L1.713,15.6A3.282,3.282,0,0,0,0,18.481v1.543a.364.364,0,0,0,.364.364H12.754a5.418,5.418,0,0,1-.26-6.178Z" fill="#1e306e"/>
  </g>
</svg>
