<svg xmlns="http://www.w3.org/2000/svg" width="99.997" height="97.273" viewBox="0 0 99.997 97.273">
  <g id="noun_User_26029" transform="translate(-0.003 -1.362)" opacity="0.6">
    <path id="Path_26162" data-name="Path 26162" d="M98.071,88.469c-2.847-6.4-16.743-10.638-25.976-14.615s-7.971-6.388-8.3-9.687c-.045-.452-.075-.933-.093-1.426a27.3,27.3,0,0,0,7.437-10.809s.088-.22.113-.287c.354-.94.668-1.92.938-2.919,2.117-.418,3.35-2.665,3.821-4.743a9.363,9.363,0,0,0,1.238-5.266C76.954,35.689,75.7,34.29,74.3,33.7c0-.182,0-.355,0-.525a102.916,102.916,0,0,0-1.092-15.048,21.7,21.7,0,0,0-.691-3.013c-1.363-4.467-4.214-7.481-8.025-10.3-3.934-2.913-9.5-3.452-14.437-3.452S39.55,1.9,35.617,4.814c-3.811,2.823-6.662,5.837-8.025,10.3a21.7,21.7,0,0,0-.691,3.013,102.886,102.886,0,0,0-1.092,15.048c0,.157,0,.316,0,.482-1.449.559-2.756,1.952-3.056,5.055a9.363,9.363,0,0,0,1.238,5.266c.479,2.114,1.747,4.4,3.932,4.763.271,1,.59,1.99.948,2.938.023.062.048.122.072.183l.033.082A27.211,27.211,0,0,0,36.6,62.894c-.019.439-.047.866-.088,1.271-.332,3.3.639,5.71-8.594,9.687S4.784,82.065,1.937,88.467.227,98.635.227,98.635H99.774S100.919,94.87,98.071,88.469Z"/>
  </g>
</svg>
