<svg xmlns="http://www.w3.org/2000/svg" width="16" height="16" viewBox="0 0 16 16"><defs><style>.a{fill:#fa6a0b;}.b{fill:#fff;}</style></defs><g transform="translate(-395 -448.5)"><circle class="a" cx="8" cy="8" r="8" transform="translate(395 448.5)"/><path class="b" d="M4.874.327l1.092,2.3L8.2,2.869a.572.572,0,0,1,.3,1.011L6.724,5.347l.552,2.464a.572.572,0,0,1-.856.614L4.356,7.171,2.293,8.425a.572.572,0,0,1-.856-.614l.552-2.464L.209,3.879a.572.572,0,0,1,.3-1.011l2.235-.237L3.839.327a.572.572,0,0,1,1.034,0" transform="translate(398.613 452.5)"/></g></svg>