<svg xmlns="http://www.w3.org/2000/svg" width="19.828" height="20.38" viewBox="0 0 19.828 20.38"><defs><style>.a{fill:#1e306e;}</style></defs><g transform="translate(-1.297)"><path class="a" d="M21.118,19.862,17.679.365A.442.442,0,0,0,17.244,0H12.653a.442.442,0,0,0-.442.453l.115,4.681H10.1L10.21.453A.442.442,0,0,0,9.769,0H5.177a.442.442,0,0,0-.435.365L1.3,19.862a.442.442,0,0,0,.435.519H9.288a.442.442,0,0,0,.442-.431l.116-4.7h2.731l.116,4.7a.442.442,0,0,0,.442.431h7.549a.442.442,0,0,0,.435-.519ZM9.884,13.695l.173-7.009h2.308l.173,7.009Z" transform="translate(0)"/></g></svg>