<svg xmlns="http://www.w3.org/2000/svg" width="24" height="23" viewBox="0 0 24 23"><defs><style>.a{fill:#fff;stroke:#2aabfa;}.b{fill:#2aabfa;}.c{stroke:none;}.d{fill:none;}</style></defs><g transform="translate(0)"><g class="a" transform="translate(0)"><ellipse class="c" cx="12" cy="11.5" rx="12" ry="11.5"/><ellipse class="d" cx="12" cy="11.5" rx="11.5" ry="11"/></g><g transform="translate(7.754 5.889)"><path class="b" d="M.447,8.077h0a.45.45,0,0,1-.361-.186.441.441,0,0,1-.064-.4L.843,4.877a1.128,1.128,0,0,1,.278-.455L5.208.328a1.122,1.122,0,0,1,1.586,0l.953.951a1.121,1.121,0,0,1,0,1.584L3.658,6.957a1.126,1.126,0,0,1-.455.276l-2.62.823A.455.455,0,0,1,.447,8.077ZM6,.989a.446.446,0,0,0-.317.131L1.877,4.931a.449.449,0,0,0,.635.635L6.319,1.755A.449.449,0,0,0,6,.989Z" transform="translate(0.001)"/><path class="b" d="M7.515,1.122H.561A.561.561,0,0,1,.561,0H7.515a.561.561,0,0,1,0,1.122" transform="translate(0 9.647)"/></g></g></svg>