<svg xmlns="http://www.w3.org/2000/svg" width="15.124" height="15.124" viewBox="0 0 15.124 15.124"><defs><style>.a{fill:#fa6400;}</style></defs><g transform="translate(0 0)"><path class="a" d="M10.47,12.422V14.38A1.092,1.092,0,0,1,9.38,15.47H2.836A1.092,1.092,0,0,1,1.745,14.38V7.836A1.092,1.092,0,0,1,2.836,6.745H4.83L6.576,5H2.836A2.835,2.835,0,0,0,0,7.836V14.38a2.835,2.835,0,0,0,2.836,2.836H9.38a2.835,2.835,0,0,0,2.836-2.836v-3.7Z" transform="translate(0 -2.092)"/><g transform="translate(4.888 0)"><path class="a" d="M16.65,0H10.683c-1.1,0-1.021.3-.442.875l1.873,1.873L8.9,5.958a1.7,1.7,0,0,0,0,2.409l1.4,1.4a1.7,1.7,0,0,0,2.408,0l3.211-3.211L17.762,8.4c.64.64.877.657.877-.44V1.989C18.639-.01,18.653,0,16.65,0Z" transform="translate(-8.404 0)"/></g></g></svg>