<svg xmlns="http://www.w3.org/2000/svg" xmlns:xlink="http://www.w3.org/1999/xlink" width="183.806" height="105.291" viewBox="0 0 183.806 105.291"><defs><style>.a{fill:url(#a);}.b,.f,.o{fill:#fff;}.c,.d,.e,.f,.g,.h,.k,.m,.n,.o,.p,.q,.r,.s,.t,.u{fill-rule:evenodd;}.c{fill:url(#b);}.d{fill:#003398;}.e{fill:url(#c);}.f{stroke:#f6f6f6;stroke-width:0.5px;}.g{fill:url(#d);}.h,.l{fill:#1e2187;}.i{fill:#dfeafa;}.j{fill:#f5f5f5;}.k{fill:#ffd138;}.m{fill:#ffda66;}.n,.w{fill:url(#e);}.p{fill:#1d35b9;}.q{fill:#0421a3;}.r{fill:#354ad0;}.s{fill:#2e44c9;}.t{fill:#0b26a9;}.u{fill:#2038bc;}.v{fill:none;stroke:#122cb0;stroke-linecap:round;stroke-linejoin:round;stroke-width:2px;}</style><linearGradient id="a" x1="0.298" y1="1.49" x2="0.673" y2="-0.606" gradientUnits="objectBoundingBox"><stop offset="0" stop-color="#fff"/><stop offset="1" stop-color="#d5e4f8"/></linearGradient><linearGradient id="b" x1="0.312" y1="0.333" x2="0.911" y2="0.903" xlink:href="#a"/><linearGradient id="c" x1="0.074" y1="-0.068" x2="1.159" y2="0.53" xlink:href="#a"/><linearGradient id="d" x1="0.046" y1="0.085" x2="1" y2="1" gradientUnits="objectBoundingBox"><stop offset="0" stop-color="#1e306e"/><stop offset="1" stop-color="#0027ac"/></linearGradient><linearGradient id="e" x1="0.5" y1="0" x2="0.5" y2="1" xlink:href="#d"/></defs><g transform="translate(-628 -260.349)"><path class="a" d="M1980.956,956.668s-5.953-2.708-5.069-6.9,5.723-3.753,5.069-7.064-3.832-8.468-.742-12.221,8.23-1.5,8.875-7.322c.52-4.69,2.686-8.011,6.885-7.038,3.886.9,6.784,3.911,6.857,11.068.078,7.621,5.445,5.479,5.511,11.094.067,5.654-4.437,5.654-6.2,9.448-.831,1.792,1.336,8.089-5.068,8.937Z" transform="translate(-1208.784 -593.173)"/><path class="b" d="M2067.148,937.631s.015.128.037.378c.068.75.2,2.578.2,5.126,0,7.454-1.174,21.069-8.594,31.935a.326.326,0,0,0,.538.368c7.538-11.057,8.7-24.784,8.706-32.3a54.183,54.183,0,0,0-.246-5.578.325.325,0,0,0-.646.074" transform="translate(-1280.608 -611.634)"/><path class="c" d="M2066.928,1049.132s-.937-5.176,2.577-7.283,7.1-3.747,6.711-7.143.568-7.4,6.2-7.478c3.479-.045,2.173-3.714,5.708-4.445,2.149-.445,3.566,1.8,3.84,4,.313,2.509-1.107,4.975.522,7.018,2.114,2.647,2.972,7.583-1.571,8.988s-.494,5.706-6.681,6.342Z" transform="translate(-1287.601 -685.637)"/><path class="b" d="M2130.29,1039.474c-.118,3.3-1.581,7.99-4.083,12.467s-6.038,8.752-10.264,11.269a.325.325,0,1,0,.332.558c4.365-2.6,7.957-6.957,10.5-11.51s4.036-9.3,4.166-12.76a.325.325,0,0,0-.65-.024" transform="translate(-1330.006 -699.869)"/><path class="d" d="M970.394,1219.734H1154.2v2.145H970.394v-2.145" transform="translate(-342.394 -856.239)"/><path class="e" d="M1399.009,518.271H1475a6.97,6.97,0,0,1,6.949,6.949v87.07H1392.06V525.22a6.97,6.97,0,0,1,6.949-6.949" transform="translate(-703.286 -248.795)"/><path class="f" d="M1359.548,518.271h75.318a6.97,6.97,0,0,1,6.949,6.949v87.07H1352.6V525.22a6.97,6.97,0,0,1,6.949-6.949" transform="translate(-669.114 -248.795)"/><path class="g" d="M1359.021,518.271h76.372a6.441,6.441,0,0,1,6.422,6.422v15.846H1352.6V524.693a6.441,6.441,0,0,1,6.422-6.422" transform="translate(-669.114 -248.795)"/><path class="h" d="M1467.863,572.522a3.967,3.967,0,1,1-3.967,3.967,3.967,3.967,0,0,1,3.967-3.967" transform="translate(-765.493 -295.775)"/><path class="h" d="M1858.2,572.522a3.967,3.967,0,1,1-3.967,3.967,3.967,3.967,0,0,1,3.967-3.967" transform="translate(-1103.516 -295.775)"/><path class="i" d="M1447.84,450.174h0a7.179,7.179,0,0,1,7.163,7.163V459.3h-3.748v-1.965a3.43,3.43,0,0,0-3.415-3.415h0a3.43,3.43,0,0,0-3.415,3.415v7.839a3.43,3.43,0,0,0,3.415,3.415,1.929,1.929,0,0,1,1.6,1.972,1.72,1.72,0,0,1-1.6,1.776,7.179,7.179,0,0,1-7.163-7.163v-7.839a7.179,7.179,0,0,1,7.163-7.163" transform="translate(-745.387 -189.825)"/><path class="i" d="M1831.918,450.174h0a7.179,7.179,0,0,1,7.163,7.163V459.3h-3.748v-1.965a3.43,3.43,0,0,0-3.415-3.415h0a3.429,3.429,0,0,0-3.415,3.415v7.839a3.429,3.429,0,0,0,3.415,3.415,1.929,1.929,0,0,1,1.6,1.972,1.721,1.721,0,0,1-1.6,1.776,7.178,7.178,0,0,1-7.163-7.163v-7.839a7.178,7.178,0,0,1,7.163-7.163" transform="translate(-1077.986 -189.825)"/><path class="j" d="M0,0H14.179V10.935H0Z" transform="translate(689 322.847)"/><path class="j" d="M0,0H14.179V10.935H0Z" transform="translate(689 335.77)"/><path class="j" d="M0,0H14.179V10.935H0Z" transform="translate(689 297)"/><path class="j" d="M0,0H14.179V10.935H0Z" transform="translate(705.07 297)"/><path class="j" d="M0,0H14.179V10.935H0Z" transform="translate(721.139 297)"/><path class="j" d="M0,0H14.179V10.935H0Z" transform="translate(737.209 297)"/><path class="j" d="M0,0H14.179V10.935H0Z" transform="translate(753.278 297)"/><path class="j" d="M0,0H14.179V10.935H0Z" transform="translate(689 309.923)"/><path class="j" d="M0,0H14.179V10.935H0Z" transform="translate(705.07 309.923)"/><path class="j" d="M0,0H14.179V10.935H0Z" transform="translate(721.139 309.923)"/><path class="j" d="M0,0H14.179V10.935H0Z" transform="translate(737.209 309.923)"/><path class="j" d="M0,0H14.179V10.935H0Z" transform="translate(753.278 309.923)"/><path class="j" d="M0,0H14.179V10.935H0Z" transform="translate(705.07 322.847)"/><path class="j" d="M0,0H14.179V10.935H0Z" transform="translate(721.139 322.847)"/><path class="j" d="M0,0H14.179V10.935H0Z" transform="translate(737.209 322.847)"/><path class="j" d="M0,0H14.179V10.935H0Z" transform="translate(753.278 322.847)"/><path class="j" d="M0,0H14.179V10.935H0Z" transform="translate(705.07 335.77)"/><path class="j" d="M0,0H14.179V10.935H0Z" transform="translate(721.139 335.77)"/><path class="j" d="M0,0H14.179V10.935H0Z" transform="translate(737.209 335.77)"/><path class="j" d="M0,0H14.179V10.935H0Z" transform="translate(753.278 335.77)"/><path class="j" d="M0,0H14.179V10.935H0Z" transform="translate(689 348.694)"/><path class="j" d="M0,0H14.179V10.935H0Z" transform="translate(705.07 348.694)"/><path class="j" d="M0,0H14.179V10.935H0Z" transform="translate(721.139 348.694)"/><path class="j" d="M0,0H14.179V10.935H0Z" transform="translate(737.209 348.694)"/><path class="j" d="M0,0H14.179V10.935H0Z" transform="translate(753.278 348.694)"/><path class="k" d="M1071.374,1180.275h0a1.371,1.371,0,0,0-1.868.5l-2.425,4.2a1.355,1.355,0,0,0-.159.431h3.068l1.884-3.263a1.371,1.371,0,0,0-.5-1.868m27.791,0h0a1.371,1.371,0,0,1,1.868.5l2.425,4.2a1.348,1.348,0,0,1,.159.431h-3.068l-1.885-3.263A1.371,1.371,0,0,1,1099.165,1180.275Z" transform="translate(-421.727 -821.911)"/><rect class="l" width="9.908" height="4.354" transform="translate(658.808 305.242)"/><path class="m" d="M1144.969,757.929h14.665a.9.9,0,0,1,.893.893v2.955a.9.9,0,0,1-.893.893h-14.665a.9.9,0,0,1-.893-.893v-2.955a.9.9,0,0,1,.893-.893" transform="translate(-488.54 -456.331)"/><path class="n" d="M1024.389,805.356a27.77,27.77,0,1,1-27.77,27.77,27.77,27.77,0,0,1,27.77-27.77" transform="translate(-360.847 -497.401)"/><path class="o" d="M1063.261,850.244A21.754,21.754,0,1,1,1041.507,872a21.754,21.754,0,0,1,21.754-21.754" transform="translate(-399.719 -536.273)"/><path class="p" d="M1332.628,1002.1a1.394,1.394,0,1,1-1.394,1.395,1.395,1.395,0,0,1,1.394-1.395" transform="translate(-650.612 -667.774)"/><path class="q" d="M1194.786,1140.638a1.394,1.394,0,1,1-1.394,1.394,1.394,1.394,0,0,1,1.394-1.394" transform="translate(-531.246 -787.744)"/><path class="r" d="M1194.786,860.746a1.395,1.395,0,1,1-1.394,1.394,1.394,1.394,0,0,1,1.394-1.394" transform="translate(-531.246 -545.367)"/><path class="s" d="M1099.437,931.889h0a.752.752,0,0,1,0,1.061l-.51.51a.753.753,0,0,1-1.062,0h0a.753.753,0,0,1,0-1.061l.51-.51a.752.752,0,0,1,1.061,0m26.006-26.006h0a.753.753,0,0,1,0,1.061l-.51.51a.753.753,0,0,1-1.061,0h0a.752.752,0,0,1,0-1.061l.51-.51A.753.753,0,0,1,1125.443,905.883Z" transform="translate(-448.333 -584.265)"/><path class="t" d="M1127.122,931.889h0a.753.753,0,0,0,0,1.061l.51.51a.752.752,0,0,0,1.061,0h0a.753.753,0,0,0,0-1.061l-.51-.51a.753.753,0,0,0-1.062,0m-26.006-26.006h0a.752.752,0,0,0,0,1.061l.51.51a.753.753,0,0,0,1.062,0h0a.753.753,0,0,0,0-1.061l-.51-.51A.753.753,0,0,0,1101.115,905.883Z" transform="translate(-451.148 -584.265)"/><path class="m" d="M1160.322,750.332h10.942a.668.668,0,0,1,.666.667v2.2a.668.668,0,0,1-.666.666h-10.942a.668.668,0,0,1-.666-.666V751a.668.668,0,0,1,.666-.667" transform="translate(-502.032 -449.752)"/><path class="u" d="M1058.9,1002.1a1.394,1.394,0,1,1-1.395,1.395,1.394,1.394,0,0,1,1.395-1.395" transform="translate(-413.571 -667.774)"/><path class="v" d="M983.706,492.639V507.3h11.019" transform="translate(-320.164 -171.654)"/><path class="w" d="M96.933,91.067,78.182,109.819l-8.573-8.573a2.589,2.589,0,0,0-3.661,3.661l10.4,10.4a2.589,2.589,0,0,0,3.661,0l20.582-20.582a2.589,2.589,0,0,0-3.661-3.661Z" transform="translate(645 219.626)"/></g></svg>