<svg xmlns="http://www.w3.org/2000/svg" width="25.528" height="27.092" viewBox="0 0 25.528 27.092">
  <g id="Group_15136" data-name="Group 15136" transform="translate(-6863.379 -1015.268)">
    <g id="icon" transform="translate(6863.379 1018.881)">
      <path id="Path_182" data-name="Path 182" d="M.783,8.646h.783v4.7H.783A.781.781,0,0,1,0,12.559V9.429A.783.783,0,0,1,.783,8.646Zm23.479,0h-.783v4.7h.783a.782.782,0,0,0,.783-.782V9.429A.783.783,0,0,0,24.261,8.646ZM21.914,7.082V21.169a1.564,1.564,0,0,1-1.565,1.565V24.3a1.564,1.564,0,0,1-1.565,1.565H17.217A1.565,1.565,0,0,1,15.652,24.3V22.734H9.392V24.3a1.564,1.564,0,0,1-1.565,1.565H6.262A1.565,1.565,0,0,1,4.7,24.3V22.734a1.565,1.565,0,0,1-1.565-1.565V7.082a4.7,4.7,0,0,1,4.7-4.7h9.391A4.7,4.7,0,0,1,21.914,7.082ZM9.392,5.517h0ZM7.827,19.6a1.565,1.565,0,1,0-1.565,1.565A1.563,1.563,0,0,0,7.827,19.6Zm12.522,0a1.565,1.565,0,1,0-1.565,1.565A1.563,1.563,0,0,0,20.348,19.6Zm0-12.522H4.7v9.391H20.348V7.082Z" transform="translate(0 -2.386)" fill="#1e306e"/>
    </g>
    <g id="Group_15136-2" data-name="Group 15136" transform="translate(6877.773 1015.268)">
      <g id="Path_26166" data-name="Path 26166" fill="#1e306e">
        <path d="M 5.566605567932129 10.63321590423584 C 2.772865533828735 10.63321590423584 0.4999955594539642 8.360345840454102 0.4999955594539642 5.566605567932129 C 0.4999955594539642 2.772865533828735 2.772865533828735 0.4999955594539642 5.566605567932129 0.4999955594539642 C 8.360345840454102 0.4999955594539642 10.63321590423584 2.772865533828735 10.63321590423584 5.566605567932129 C 10.63321590423584 8.360345840454102 8.360345840454102 10.63321590423584 5.566605567932129 10.63321590423584 Z" stroke="none"/>
        <path d="M 5.566605567932129 0.999995231628418 C 3.048565864562988 0.999995231628418 0.999995231628418 3.048565864562988 0.999995231628418 5.566605567932129 C 0.999995231628418 8.08464527130127 3.048565864562988 10.13321590423584 5.566605567932129 10.13321590423584 C 8.08464527130127 10.13321590423584 10.13321590423584 8.08464527130127 10.13321590423584 5.566605567932129 C 10.13321590423584 3.048565864562988 8.08464527130127 0.999995231628418 5.566605567932129 0.999995231628418 M 5.566605567932129 -4.76837158203125e-06 C 8.640955924987793 -4.76837158203125e-06 11.13321590423584 2.492255210876465 11.13321590423584 5.566605567932129 C 11.13321590423584 8.640955924987793 8.640955924987793 11.13321590423584 5.566605567932129 11.13321590423584 C 2.492255210876465 11.13321590423584 -4.76837158203125e-06 8.640955924987793 -4.76837158203125e-06 5.566605567932129 C -4.76837158203125e-06 2.492255210876465 2.492255210876465 -4.76837158203125e-06 5.566605567932129 -4.76837158203125e-06 Z" stroke="none" fill="#fff"/>
      </g>
      <path id="Path_26167" data-name="Path 26167" d="M332.077,66.813V64.963a.463.463,0,1,0-.925,0v2.045a.458.458,0,0,0,.134.329l1.027,1.027a.453.453,0,0,0,.329.134.473.473,0,0,0,.328-.134.461.461,0,0,0,0-.652Zm0,0" transform="translate(-326.429 -60.864)" fill="#fff"/>
    </g>
  </g>
</svg>
