<svg xmlns="http://www.w3.org/2000/svg" width="14.081" height="13.05" viewBox="0 0 14.081 13.05"><defs><style>.a{fill:#5c5c5c;}</style></defs><g transform="translate(0 0)"><g transform="translate(0 0)"><path class="a" d="M13.677,228.21a.4.4,0,0,0-.4.4v3.67a1.81,1.81,0,0,1-1.808,1.808H2.615a1.81,1.81,0,0,1-1.808-1.808v-3.729a.4.4,0,0,0-.807,0v3.729A2.618,2.618,0,0,0,2.615,234.9h8.851a2.618,2.618,0,0,0,2.615-2.615v-3.67A.4.4,0,0,0,13.677,228.21Z" transform="translate(0 -221.848)"/><path class="a" d="M137.012,20.5l1.877-1.877v8.185a.4.4,0,0,0,.807,0V18.628l1.877,1.877a.406.406,0,0,0,.284.12.389.389,0,0,0,.284-.12.4.4,0,0,0,0-.571l-2.564-2.564a.408.408,0,0,0-.284-.12.391.391,0,0,0-.284.12l-2.564,2.564a.4.4,0,0,0,.568.571Z" transform="translate(-132.251 -17.25)"/></g></g></svg>