<svg xmlns="http://www.w3.org/2000/svg" width="30" height="20" viewBox="0 0 30 20"><defs><style>.a{fill:#f0f0f0;}.b{fill:#d80027;}.c{fill:#2e52b2;}</style></defs><g transform="translate(0 -0.019)"><rect class="a" width="30" height="20" transform="translate(0 0.019)"/><g transform="translate(0 2.461)"><rect class="b" width="30" height="2.5" transform="translate(0 0.058)"/><rect class="b" width="30" height="2.5" transform="translate(0 5.058)"/><rect class="b" width="30" height="2.5" transform="translate(0 10.058)"/><rect class="b" width="30" height="2.5" transform="translate(0 15.058)"/></g><rect class="c" width="15" height="10.769" transform="translate(0 0.019)"/><g transform="translate(1.523 1.699)"><path class="a" d="M1.023,0,.781.743H0L.632,1.2l-.242.743.632-.459.632.459L1.413,1.2,2.046.743H1.264Z" transform="translate(3.303 2.732)"/><path class="a" d="M1.264.743,1.023,0,.781.743H0L.632,1.2l-.242.743.632-.459.632.459L1.413,1.2,2.046.743Z" transform="translate(3.303 5.414)"/><path class="a" d="M1.264.743,1.023,0,.781.743H0L.632,1.2l-.242.743.632-.459.632.459L1.413,1.2,2.046.743Z" transform="translate(0 5.414)"/><path class="a" d="M1.023,0,.781.743H0L.632,1.2l-.242.743.632-.459.632.459L1.413,1.2,2.046.743H1.264Z" transform="translate(0 2.732)"/><path class="a" d="M1.023,0,.781.743H0L.632,1.2l-.242.743.632-.459.632.459L1.413,1.2,2.046.743H1.264Z" transform="translate(3.303 0.05)"/><path class="a" d="M1.023,0,.781.743H0L.632,1.2l-.242.743.632-.459.632.459L1.413,1.2,2.046.743H1.264Z" transform="translate(0 0.05)"/><path class="a" d="M1.023,0,.781.743H0L.632,1.2l-.241.743.632-.459.632.459L1.413,1.2,2.046.743H1.264Z" transform="translate(6.605 2.732)"/><path class="a" d="M1.264.743,1.023,0,.781.743H0L.632,1.2l-.241.743.632-.459.632.459L1.413,1.2,2.046.743Z" transform="translate(6.605 5.414)"/><path class="a" d="M1.264.743,1.023,0,.781.743H0L.632,1.2l-.242.743.632-.459.632.459L1.413,1.2,2.046.743Z" transform="translate(9.908 5.414)"/><path class="a" d="M1.023,0,.781.743H0L.632,1.2l-.242.743.632-.459.632.459L1.413,1.2,2.046.743H1.264Z" transform="translate(9.908 2.732)"/><path class="a" d="M1.023,0,.781.743H0L.632,1.2l-.241.743.632-.459.632.459L1.413,1.2,2.046.743H1.264Z" transform="translate(6.605 0.05)"/><path class="a" d="M1.023,0,.781.743H0L.632,1.2l-.242.743.632-.459.632.459L1.413,1.2,2.046.743H1.264Z" transform="translate(9.908 0.05)"/></g></g></svg>