<svg xmlns="http://www.w3.org/2000/svg" width="19" height="19" viewBox="0 0 19 19"><defs><style>.a,.b{opacity:0.8;}</style></defs><g class="a" transform="translate(-0.841 0.099)"><path class="b" d="M9.5,19A9.5,9.5,0,0,1,2.783,2.783,9.5,9.5,0,1,1,16.217,16.217,9.437,9.437,0,0,1,9.5,19Zm0-9.5a5.967,5.967,0,0,0-2.947.767,5.268,5.268,0,0,0-2.009,2,1.174,1.174,0,0,0,.115,1.322,6.336,6.336,0,0,0,9.682,0,1.176,1.176,0,0,0,.115-1.322,5.272,5.272,0,0,0-2.009-2A5.967,5.967,0,0,0,9.5,9.5Zm0-6.333A2.573,2.573,0,1,0,12.073,5.74,2.576,2.576,0,0,0,9.5,3.167Z" transform="translate(0.841 -0.099)"/></g></svg>