<svg xmlns="http://www.w3.org/2000/svg" width="29.504" height="32.399" viewBox="0 0 29.504 32.399"><defs><style>.a,.b{fill:#1e306e;}.a{fill-rule:evenodd;}.c{fill:#fff;}</style></defs><g transform="translate(0 4.785)"><path class="a" d="M3.9,0H21.185A3.8,3.8,0,0,1,24.98,3.9V21.818a3.758,3.758,0,0,1-.843,2.424v2a1.492,1.492,0,0,1-1.476,1.37H19.6a1.42,1.42,0,0,1-1.476-1.37v-.632H6.851v.632a1.42,1.42,0,0,1-1.476,1.37H2.319a1.492,1.492,0,0,1-1.476-1.37v-2A3.758,3.758,0,0,1,0,21.818V3.9A3.826,3.826,0,0,1,3.9,0ZM8.327,1.159h8.327a1,1,0,0,1,0,2H8.327A1,1,0,0,1,8.327,1.159Zm.738,22.029c-.422,0-.422-.843,0-.843h6.851c.422,0,.422.843,0,.843ZM7.483,21.5a.425.425,0,1,1,0-.843H17.5a.425.425,0,1,1,0,.843Zm-.527,1.581c-4.743.105-6.008-.632-5.8-5.165A13.245,13.245,0,0,0,6.956,23.083Zm11.067,0c4.848.105,6.008-.632,5.8-5.165A13.245,13.245,0,0,1,18.023,23.083ZM4.954,4.005H20.026A3.779,3.779,0,0,1,23.82,7.8v5.9A3.779,3.779,0,0,1,20.026,17.5H4.954A3.779,3.779,0,0,1,1.159,13.7V7.8A3.779,3.779,0,0,1,4.954,4.005Z"/></g><path class="b" d="M7.177,0A7.177,7.177,0,1,1,0,7.177,7.177,7.177,0,0,1,7.177,0Z" transform="translate(15.151)"/><path class="c" d="M332.345,67.483V65.1a.6.6,0,0,0-1.193,0v2.637a.591.591,0,0,0,.173.424l1.324,1.324a.584.584,0,0,0,.424.173.609.609,0,0,0,.423-.173.594.594,0,0,0,.006-.841Zm0,0" transform="translate(-309.912 -59.812)"/></svg>