<svg xmlns="http://www.w3.org/2000/svg" width="64" height="61" viewBox="0 0 64 61"><defs><style>.a,.d{fill:#fff;}.a{stroke:rgba(0,0,0,0.05);}.b,.c{fill:#1e306e;}.b{fill-rule:evenodd;}.e{stroke:none;}.f{fill:none;}</style></defs><g transform="translate(-497 -281)"><g class="a" transform="translate(497 281)"><rect class="e" width="64" height="61" rx="13"/><rect class="f" x="0.5" y="0.5" width="63" height="60" rx="12.5"/></g><g transform="translate(511.937 285.268)"><g transform="translate(0 6.402)"><path class="b" d="M5.218,0H28.345a5.088,5.088,0,0,1,5.077,5.218V29.191a5.028,5.028,0,0,1-1.128,3.243v2.679a2,2,0,0,1-1.974,1.833H26.23a1.9,1.9,0,0,1-1.974-1.833v-.846H9.166v.846a1.9,1.9,0,0,1-1.974,1.833H3.1a2,2,0,0,1-1.974-1.833V32.435A5.028,5.028,0,0,1,0,29.191V5.218A5.119,5.119,0,0,1,5.218,0Zm5.923,1.551H22.281a1.342,1.342,0,0,1,0,2.679H11.141A1.342,1.342,0,0,1,11.141,1.551Zm.987,29.473c-.564,0-.564-1.128,0-1.128h9.166c.564,0,.564,1.128,0,1.128Zm-2.115-2.256a.568.568,0,1,1,0-1.128h13.4a.568.568,0,1,1,0,1.128Zm-.705,2.115c-6.346.141-8.038-.846-7.756-6.91A17.722,17.722,0,0,0,9.307,30.883Zm14.807,0c6.487.141,8.038-.846,7.756-6.91A17.722,17.722,0,0,1,24.114,30.883ZM6.628,5.359H26.794a5.056,5.056,0,0,1,5.077,5.077v7.9a5.056,5.056,0,0,1-5.077,5.077H6.628a5.056,5.056,0,0,1-5.077-5.077v-7.9A5.056,5.056,0,0,1,6.628,5.359Z"/></g><path class="c" d="M9.6,0A9.6,9.6,0,1,1,0,9.6,9.6,9.6,0,0,1,9.6,0Z" transform="translate(20.271)"/><path class="d" d="M332.748,68.491V65.3a.8.8,0,0,0-1.6,0v3.528a.79.79,0,0,0,.231.567l1.772,1.772a.782.782,0,0,0,.567.231.815.815,0,0,0,.567-.231.795.795,0,0,0,.008-1.125Zm0,0" transform="translate(-302.735 -58.228)"/></g></g></svg>