<svg xmlns="http://www.w3.org/2000/svg" width="30.9" height="35.464" viewBox="0 0 30.9 35.464"><defs><style>.a{fill:#fff;stroke:#fff;stroke-width:0.2px;}</style></defs><g transform="translate(0.1 0.1)"><path class="a" d="M18870.76,14242.848h1.93a2.26,2.26,0,0,1,2.439-1.85h14.445a2.208,2.208,0,0,1,2.436,1.85h1.932a3.771,3.771,0,0,1,3.758,3.76v20.382a3.775,3.775,0,0,1-3.576,3.758v3.243c0,3.033-5.576,3.027-5.576,0v-3.24h-12.393l0,.051v3.189c0,3.033-5.58,3.027-5.58,0v-3.243a3.775,3.775,0,0,1-3.578-3.758v-20.382A3.771,3.771,0,0,1,18870.76,14242.848Zm4.406,27.9h-3.6v3.24c0,1.728,3.6,1.722,3.6,0v-3.24Zm17.971,0h-3.6l0,3.24c0,1.728,3.605,1.723,3.605,0v-3.189Zm-19.443-27.9h17.318c-.141-.678-.826-.864-1.437-.864h-14.445A1.339,1.339,0,0,0,18873.693,14242.848Zm20.248.986h-23.182a2.785,2.785,0,0,0-2.775,2.773v20.382a2.785,2.785,0,0,0,2.775,2.774h22.781c1.727,0,3.174-.909,3.174-2.774v-20.382A2.782,2.782,0,0,0,18893.941,14243.834Z" transform="translate(-18866.998 -14240.998)"/><path class="a" d="M26440.494,27456h22.713a.5.5,0,0,1,.494.494v8.09a.5.5,0,0,1-.494.494h-22.713a.5.5,0,0,1-.5-.494v-8.09A.5.5,0,0,1,26440.494,27456Zm22.217.984h-21.727v7.107h21.727Z" transform="translate(-26436.264 -27449.482)"/><path class="a" d="M27783.977,54277a2.984,2.984,0,1,1-2.982,2.984A2.987,2.987,0,0,1,27783.977,54277Zm0,.992a1.994,1.994,0,1,0,2,1.992A1.989,1.989,0,0,0,27783.977,54277.988Z" transform="translate(-27776.6 -54257.258)"/><path class="a" d="M60124.98,54277a2.984,2.984,0,1,1-2.984,2.984A2.994,2.994,0,0,1,60124.98,54277Zm0,.992a1.994,1.994,0,1,0,2,1.992A1.989,1.989,0,0,0,60124.98,54277.988Z" transform="translate(-60101.652 -54257.258)"/></g></svg>